<svg xmlns="http://www.w3.org/2000/svg" width="1838" height="593" viewBox="0 0 1838 593" version="1.1"><path d="M 111 275.500 L 111 440 221 440 L 331 440 331 275.500 L 331 111 221 111 L 111 111 111 275.500 M 439.689 179.644 C 439.310 180.023, 439 223.458, 439 276.167 L 439 372 453.500 372 L 468 372 468.056 298.250 L 468.112 224.500 494.802 277.750 L 521.491 331 535.744 331 L 549.996 331 576.943 277.250 L 603.891 223.500 603.945 297.750 L 604 372 618 372 L 632 372 632 275.477 L 632 178.954 614.452 179.227 L 596.904 179.500 566.319 237.772 L 535.733 296.044 511.719 250.272 C 498.511 225.097, 484.730 198.875, 481.095 192 L 474.485 179.500 457.432 179.227 C 448.053 179.077, 440.069 179.265, 439.689 179.644 M 781.156 180.750 C 780.653 181.713, 762.133 224.800, 740.001 276.500 C 717.868 328.200, 699.562 370.837, 699.321 371.250 C 699.079 371.663, 705.368 372, 713.296 372 L 727.710 372 736.646 351.750 L 745.582 331.500 795.603 331.241 L 845.624 330.982 854.562 351.461 L 863.500 371.941 877.857 371.971 C 890.401 371.996, 892.139 371.805, 891.621 370.455 C 891.295 369.606, 872.718 326.181, 850.339 273.955 L 809.650 179 795.860 179 C 783.742 179, 781.960 179.212, 781.156 180.750 M 946 275.500 L 946 372 960 372 L 974 372 974 331 L 974 290 997.498 290 L 1020.995 290 1041.500 331 L 1062.005 372 1079.502 372 C 1089.126 372, 1097 371.744, 1097 371.431 C 1097 371.117, 1087.277 352.866, 1075.393 330.871 C 1063.509 308.876, 1053.947 290.760, 1054.143 290.613 C 1054.339 290.466, 1057.593 289.796, 1061.372 289.125 C 1079.470 285.912, 1092.498 272.941, 1097.655 253 C 1099.761 244.857, 1100.012 226.596, 1098.123 219 C 1094.627 204.941, 1085.479 193.470, 1072.856 187.320 C 1058.191 180.175, 1046.506 179.020, 988.750 179.009 L 946 179 946 275.500 M 1137.791 179.542 C 1137.493 179.841, 1155.754 223.266, 1178.371 276.042 L 1219.494 372 1233.572 372 L 1247.650 372 1288.339 277.045 C 1310.718 224.819, 1329.300 181.382, 1329.632 180.517 C 1330.167 179.123, 1328.598 178.975, 1315.899 179.222 L 1301.562 179.500 1268.840 253.500 C 1250.844 294.200, 1235.520 328.767, 1234.789 330.315 C 1233.505 333.033, 1232.408 330.749, 1203.074 264.315 C 1186.362 226.467, 1170.987 191.787, 1168.909 187.250 L 1165.129 179 1151.731 179 C 1144.362 179, 1138.089 179.244, 1137.791 179.542 M 1423.530 182.250 C 1422.778 184.037, 1404.351 227.051, 1382.581 277.834 C 1360.811 328.618, 1343 370.581, 1343 371.084 C 1343 371.595, 1349.153 372, 1356.894 372 L 1370.788 372 1379.719 351.750 L 1388.650 331.500 1438.676 331.241 L 1488.702 330.982 1497.641 351.241 L 1506.580 371.500 1520.908 371.778 C 1533.598 372.025, 1535.167 371.877, 1534.632 370.483 C 1534.300 369.618, 1515.718 326.181, 1493.339 273.955 L 1452.650 179 1438.774 179 L 1424.898 179 1423.530 182.250 M 1589 275.500 L 1589 372 1658 372 L 1727 372 1727 358 L 1727 344 1672 344 L 1617 344 1617 261.500 L 1617 179 1603 179 L 1589 179 1589 275.500 M 180 193.500 L 180 207 221 207 L 262 207 262 193.500 L 262 180 221 180 L 180 180 180 193.500 M 974 235.052 L 974 262.234 1010.250 261.724 C 1038.503 261.326, 1047.661 260.878, 1051.764 259.693 C 1065.723 255.663, 1071.017 248.737, 1070.978 234.554 C 1070.952 224.914, 1068.967 219.767, 1063.558 215.308 C 1055.825 208.934, 1053.503 208.616, 1011.750 208.224 L 974 207.870 974 235.052 M 776.883 260.725 L 758.415 302.500 795.362 302.762 C 815.683 302.907, 832.454 302.879, 832.632 302.701 C 833.011 302.322, 797.112 220.870, 796.062 219.725 C 795.671 219.299, 787.040 237.749, 776.883 260.725 M 1420.195 260.257 C 1410.174 282.941, 1401.981 301.837, 1401.987 302.250 C 1401.994 302.663, 1418.698 303, 1439.107 303 C 1468.390 303, 1476.110 302.736, 1475.719 301.750 C 1473.371 295.823, 1439.683 220.327, 1439.132 219.757 C 1438.737 219.348, 1430.215 237.573, 1420.195 260.257 M 180 276 L 180 289 221 289 L 262 289 262 276 L 262 263 221 263 L 180 263 180 276 M 180 358 L 180 371 221 371 L 262 371 262 358 L 262 345 221 345 L 180 345 180 358 M 942.517 442.750 C 942.184 445.363, 941.686 448.962, 941.411 450.750 C 940.961 453.665, 941.161 454, 943.346 454 C 945.550 454, 945.937 453.319, 947.391 446.877 C 949.459 437.722, 949.501 438, 946.061 438 C 943.307 438, 943.085 438.298, 942.517 442.750 M 439.714 439.619 C 439.321 440.012, 439 449.483, 439 460.667 L 439 481 441.975 481 L 444.950 481 445.225 464.750 L 445.500 448.500 451.995 462.795 C 458.363 476.811, 458.548 477.084, 461.457 476.795 C 464.235 476.519, 464.839 475.591, 470.962 462.214 L 477.500 447.928 477.774 464.464 L 478.048 481 480.524 481 L 483 481 483 460 L 483 439 479.233 439 L 475.467 439 468.589 454.022 C 464.806 462.285, 461.460 468.793, 461.152 468.485 C 460.844 468.178, 457.630 461.530, 454.010 453.713 C 447.491 439.640, 447.392 439.497, 443.927 439.202 C 442.003 439.039, 440.107 439.226, 439.714 439.619 M 523.573 442.185 C 518.956 453.284, 508 480.336, 508 480.639 C 508 480.837, 509.298 481, 510.884 481 C 513.442 481, 514.020 480.379, 516 475.500 L 518.232 470 528 470 L 537.768 470 540 475.500 C 541.997 480.420, 542.544 481, 545.184 481 C 548.762 481, 549.253 482.839, 539.144 458.388 C 531.451 439.783, 531.287 439.495, 528.143 439.185 C 525.351 438.909, 524.780 439.284, 523.573 442.185 M 573 460 L 573 481 575.500 481 C 577.971 481, 578 480.900, 578 472.500 L 578 464 580.750 464.045 C 582.995 464.082, 584.693 465.635, 590 472.500 C 596.119 480.417, 596.725 480.912, 600.336 480.955 L 604.173 481 597.516 473.019 C 593.854 468.629, 591.111 464.630, 591.418 464.132 C 591.726 463.634, 593.531 462.935, 595.429 462.579 C 603.570 461.052, 606.911 450.290, 601.222 443.922 C 597.933 440.241, 593.289 439.107, 581.250 439.044 L 573 439 573 460 M 625.997 439.750 C 625.996 440.163, 629.653 449.636, 634.124 460.803 L 642.253 481.106 645.823 480.803 L 649.392 480.500 657.196 461.035 C 661.488 450.329, 665 440.961, 665 440.218 C 665 439.344, 664.066 438.979, 662.355 439.184 C 659.927 439.474, 659.184 440.849, 653.271 456 C 649.729 465.075, 646.532 472.815, 646.166 473.200 C 645.800 473.585, 642.386 466.047, 638.579 456.450 C 631.894 439.592, 631.563 439, 628.829 439 C 627.273 439, 625.999 439.337, 625.997 439.750 M 691.968 456.750 C 687.948 466.512, 684.043 475.992, 683.289 477.816 L 681.918 481.133 685.180 480.816 C 688.102 480.533, 688.654 479.949, 690.471 475.219 L 692.500 469.939 702.391 470.219 L 712.283 470.500 714.275 475.750 C 716.112 480.589, 716.521 481, 719.498 481 L 722.729 481 714.148 460 L 705.567 439 702.422 439 C 699.287 439, 699.251 439.061, 691.968 456.750 M 751.667 439.667 C 751.300 440.033, 751 449.483, 751 460.667 L 751 481 766 481 L 781 481 781 478.500 L 781 476 769 476 L 757 476 757 457.500 L 757 439 754.667 439 C 753.383 439, 752.033 439.300, 751.667 439.667 M 890.007 440.593 C 874.993 447.104, 873.070 468.791, 886.661 478.333 C 892.598 482.501, 902.549 483.166, 908.942 479.823 C 924.813 471.524, 924.553 448.154, 908.509 440.865 C 903.610 438.639, 894.810 438.510, 890.007 440.593 M 972 460 L 972 481 975 481 L 978 481 978 472 L 978 463 989 463 L 1000 463 1000 460.500 L 1000 458 989 458 L 978 458 978 451.500 L 978 445 989.500 445 L 1001 445 1001 442 L 1001 439 986.500 439 L 972 439 972 460 M 1034.150 440.720 C 1032.623 443.573, 1018 479.336, 1018 480.217 C 1018 480.648, 1019.237 481, 1020.750 480.999 C 1023.129 480.998, 1023.787 480.291, 1025.634 475.749 L 1027.767 470.500 1037.634 470.219 L 1047.500 469.939 1049.529 475.219 C 1051.338 479.929, 1051.906 480.534, 1054.779 480.813 C 1056.551 480.986, 1057.993 480.986, 1057.985 480.813 C 1057.977 480.641, 1054.181 471.275, 1049.549 460 C 1041.396 440.149, 1041.034 439.490, 1038.131 439.192 C 1036.029 438.975, 1034.839 439.432, 1034.150 440.720 M 1078 459.874 L 1078 481 1081 481 L 1084 481 1084 472.500 C 1084 464.352, 1084.093 464, 1086.250 464.001 C 1087.869 464.001, 1090.424 466.386, 1095.356 472.501 C 1101.612 480.255, 1102.521 481, 1105.729 481 C 1108.390 481, 1109.010 480.696, 1108.279 479.750 C 1107.748 479.063, 1104.784 475.394, 1101.692 471.598 C 1098.600 467.802, 1096.306 464.314, 1096.594 463.848 C 1096.882 463.382, 1098.201 463, 1099.524 463 C 1100.848 463, 1103.521 461.603, 1105.465 459.896 C 1108.660 457.091, 1108.998 456.298, 1108.978 451.646 C 1108.937 442.257, 1105.066 439.812, 1089.250 439.190 L 1078 438.748 1078 459.874 M 1132 460 L 1132 481 1134.500 481 C 1136.971 481, 1137 480.900, 1137 472.500 L 1137 464 1139.750 464.066 C 1141.960 464.119, 1143.783 465.738, 1149.036 472.316 C 1154.960 479.734, 1155.933 480.530, 1159.433 480.819 L 1163.294 481.138 1156.601 473.048 C 1152.920 468.599, 1150.180 464.518, 1150.513 463.979 C 1150.846 463.441, 1152.261 463, 1153.659 463 C 1155.215 463, 1157.517 461.683, 1159.600 459.600 C 1162.478 456.722, 1163 455.496, 1163 451.616 C 1163 448.025, 1162.404 446.366, 1160.250 443.963 C 1156.878 440.200, 1152.359 439.056, 1140.750 439.024 L 1132 439 1132 460 M 1185.667 439.667 C 1185.300 440.033, 1185 449.483, 1185 460.667 L 1185 481 1200 481 L 1215 481 1215 478.500 L 1215 476 1203 476 L 1191 476 1191 469.500 L 1191 463 1202.500 463 L 1214 463 1214 460.500 L 1214 458 1202.500 458 L 1191 458 1191 451.500 L 1191 445 1203 445 L 1215 445 1215 442 L 1215 439 1200.667 439 C 1192.783 439, 1186.033 439.300, 1185.667 439.667 M 1239 460 L 1239 481 1254 481 L 1269 481 1269 478.500 L 1269 476 1257 476 L 1245 476 1245 457.500 L 1245 439 1242 439 L 1239 439 1239 460 M 1289 460 L 1289 481 1303.500 481 L 1318 481 1318 478.500 L 1318 476 1306 476 L 1294 476 1294 457.500 L 1294 439 1291.500 439 L 1289 439 1289 460 M 1420 459.940 L 1420 481 1422.500 481 L 1425 481 1425.018 464.250 L 1425.036 447.500 1431.768 462.244 C 1438.270 476.484, 1438.602 476.987, 1441.500 476.968 C 1444.391 476.949, 1444.736 476.422, 1451 462.494 L 1457.500 448.041 1457.774 464.520 L 1458.048 481 1460.524 481 L 1463 481 1463 460 L 1463 439 1459.250 439.014 L 1455.500 439.028 1448.610 454.041 C 1444.821 462.298, 1441.524 468.858, 1441.285 468.618 C 1441.046 468.379, 1437.829 461.729, 1434.137 453.842 L 1427.424 439.500 1423.712 439.190 L 1420 438.879 1420 459.940 M 1504.086 441.187 C 1503.584 442.459, 1499.759 451.797, 1495.586 461.939 C 1491.414 472.080, 1488 480.518, 1488 480.689 C 1488 480.860, 1489.298 481, 1490.884 481 C 1493.442 481, 1494.020 480.379, 1496 475.500 L 1498.232 470 1508 470 L 1517.768 470 1520 475.500 C 1521.980 480.379, 1522.558 481, 1525.116 481 C 1526.702 481, 1527.987 480.663, 1527.971 480.250 C 1527.955 479.837, 1524.222 470.500, 1519.677 459.500 C 1511.503 439.720, 1511.377 439.497, 1508.205 439.187 C 1505.628 438.935, 1504.820 439.327, 1504.086 441.187 M 1553 460 L 1553 481 1555.500 481 L 1558 481 1558 460 L 1558 439 1555.500 439 L 1553 439 1553 460 M 1588 460 L 1588 481 1590.500 481 C 1592.971 481, 1593 480.900, 1593 472.500 L 1593 464 1595.750 464.045 C 1597.995 464.082, 1599.693 465.635, 1605 472.500 C 1611.119 480.417, 1611.725 480.912, 1615.336 480.955 L 1619.173 481 1612.516 473.019 C 1608.854 468.629, 1606.111 464.630, 1606.418 464.132 C 1606.726 463.634, 1608.531 462.935, 1610.429 462.579 C 1618.546 461.057, 1621.914 450.284, 1616.250 443.963 C 1612.878 440.200, 1608.359 439.056, 1596.750 439.024 L 1588 439 1588 460 M 1648.190 441.750 C 1647.638 443.262, 1643.784 452.740, 1639.626 462.811 L 1632.067 481.122 1635.255 480.811 C 1638.087 480.535, 1638.668 479.912, 1640.471 475.219 L 1642.500 469.939 1652.467 470.219 L 1662.434 470.500 1664.460 475.750 C 1666.319 480.567, 1666.750 481, 1669.685 481 L 1672.883 481 1665.349 462.750 C 1661.205 452.712, 1657.362 443.262, 1656.810 441.750 C 1655.990 439.508, 1655.194 439, 1652.500 439 C 1649.806 439, 1649.010 439.508, 1648.190 441.750 M 1697 460 L 1697 481 1712 481 L 1727 481 1727 478.500 L 1727 476 1715 476 L 1703 476 1703 457.500 L 1703 439 1700 439 L 1697 439 1697 460 M 894.315 445.071 C 881.784 448.819, 879.669 467.677, 891.031 474.365 C 895.210 476.826, 902.902 476.815, 907.210 474.343 C 910.996 472.169, 915 465.055, 915 460.500 C 915 456.096, 911.010 448.835, 907.500 446.848 C 903.538 444.607, 898.250 443.894, 894.315 445.071 M 578 451.500 L 578 458 585.777 458 C 595.244 458, 598 456.535, 598 451.500 C 598 446.465, 595.244 445, 585.777 445 L 578 445 578 451.500 M 1084 451.500 L 1084 458 1091.845 458 C 1100.618 458, 1103.250 456.464, 1103.250 451.344 C 1103.250 446.789, 1099.904 445, 1091.389 445 L 1084 445 1084 451.500 M 1137 451.500 L 1137 458 1144.777 458 C 1154.244 458, 1157 456.535, 1157 451.500 C 1157 446.465, 1154.244 445, 1144.777 445 L 1137 445 1137 451.500 M 1593 451.500 L 1593 458 1600.777 458 C 1610.244 458, 1613 456.535, 1613 451.500 C 1613 446.465, 1610.244 445, 1600.777 445 L 1593 445 1593 451.500 M 1649.063 454.233 C 1647.268 458.780, 1645.572 463.063, 1645.293 463.750 C 1644.914 464.685, 1646.704 465, 1652.393 465 C 1656.577 465, 1659.997 464.887, 1659.993 464.750 C 1659.990 464.613, 1658.263 460.330, 1656.156 455.233 L 1652.326 445.967 1649.063 454.233 M 523.826 456.017 L 520.152 465 527.576 465 C 531.659 465, 535 464.675, 535 464.277 C 535 462.991, 528.516 447.007, 528 447.021 C 527.725 447.028, 525.847 451.076, 523.826 456.017 M 701.774 447.557 C 701.022 448.774, 695 463.859, 695 464.526 C 695 464.787, 698.368 465, 702.485 465 L 709.971 465 707.908 459.750 C 703.932 449.633, 702.388 446.563, 701.774 447.557 M 1033.732 455.682 L 1030.199 464.500 1037.220 464.796 C 1041.082 464.959, 1044.443 464.890, 1044.690 464.643 C 1045.171 464.162, 1039.200 449.048, 1037.989 447.682 C 1037.590 447.232, 1035.674 450.832, 1033.732 455.682 M 1504.250 455.281 C 1502.463 459.831, 1501 463.880, 1501 464.277 C 1501 464.675, 1504.341 465, 1508.424 465 L 1515.848 465 1512.174 456.017 C 1510.153 451.076, 1508.275 447.028, 1508 447.021 C 1507.725 447.013, 1506.037 450.730, 1504.250 455.281" stroke="none" fill="#fffcfc" fill-rule="evenodd"/><path d="" stroke="none" fill="#fcfcfc" fill-rule="evenodd"/></svg>